<svg width="24" height="24" viewBox="0 0 24 24" fill="none" xmlns="http://www.w3.org/2000/svg">
<path fill-rule="evenodd" clip-rule="evenodd" d="M3 5.76923C3 4.23983 4.19884 3 5.67769 3H7.98347C9.46232 3 10.6612 4.23983 10.6612 5.76923V18.2308C10.6612 19.7602 9.46232 21 7.98347 21H5.67769C4.19884 21 3 19.7602 3 18.2308V5.76923ZM5.67769 4.73077H7.98347C8.53804 4.73077 8.9876 5.1957 8.9876 5.76923V18.2308C8.9876 18.8043 8.53804 19.2692 7.98347 19.2692H5.67769C5.12312 19.2692 4.67355 18.8043 4.67355 18.2308V5.76923C4.67355 5.1957 5.12312 4.73077 5.67769 4.73077Z" fill="#13121B"/>
<path fill-rule="evenodd" clip-rule="evenodd" d="M13.3388 5.76923C13.3388 4.23983 14.5377 3 16.0165 3H18.3223C19.8012 3 21 4.23983 21 5.76923V18.2308C21 19.7602 19.8012 21 18.3223 21H16.0165C14.5377 21 13.3388 19.7602 13.3388 18.2308V5.76923ZM16.0165 4.73077H18.3223C18.8769 4.73077 19.3264 5.1957 19.3264 5.76923V18.2308C19.3264 18.8043 18.8769 19.2692 18.3223 19.2692H16.0165C15.462 19.2692 15.0124 18.8043 15.0124 18.2308V5.76923C15.0124 5.1957 15.462 4.73077 16.0165 4.73077Z" fill="#13121B"/>
</svg>
