<svg xmlns="http://www.w3.org/2000/svg" width="77" height="57" fill="none">
    <path fill="#C9C9C9" stroke="#000" stroke-width="4"
        d="m14.784 18 3.764-11.172c15.55-1.92 24.842-1.867 40.368 0L62.304 18z" />
    <mask id="a" fill="#fff">
        <path d="M33 0h11l-.917 4h-9.166z" />
    </mask>
    <path fill="#000" d="M33 0h11l-.917 4h-9.166z" />
    <path fill="#000"
        d="M33 0v-4h-5.02L29.1.894zm11 0 3.899.894L49.02-4H44zm-.917 4v4h3.187l.712-3.106zm-9.166 0-3.9.894L30.73 8h3.187zM33 4h11v-8H33zm7.101-4.894-.917 4 7.798 1.788.917-4zM43.083 0h-9.166v8h9.166zm-5.267 3.107-.917-4L29.1.893l.917 4z"
        mask="url(#a)" />
    <path fill="#E8753C" stroke="#000" stroke-width="4"
        d="M16.352 52c-4.62-11.782-4.653-19.991-4.39-34h53.026q-.005 1.559-.006 3.026c-.013 11.587-.02 19.18-4.817 30.974z" />
    <path stroke="#000" stroke-width="4" d="M66 18h7M4 18h7" />
    <path fill="#000" d="M18 54h4v3h-4zM54 54h4v3h-4z" />
    <path fill="#C9C9C9" stroke="#000" stroke-width="4"
        d="m32.222 51.79 1.643-15.616c2.07-.827 3.638-1.177 5.13-1.174 1.496.003 3.066.36 5.14 1.18l1.643 15.61z" />
    <path fill="#000" d="M37 45h4v3h-4z" />
    <circle cx="2" cy="2" r="2" fill="#D9D9D9" transform="matrix(-1 0 0 1 68 11)" />
    <circle cx="11" cy="13" r="2" fill="#D9D9D9" />
    <circle cx="3" cy="3" r="3" fill="#D9D9D9" transform="matrix(-1 0 0 1 72 7)" />
    <circle cx="8" cy="10" r="3" fill="#D9D9D9" />
    <circle cx="4.5" cy="4.5" r="4.5" fill="#D9D9D9" transform="matrix(-1 0 0 1 77 1)" />
    <circle cx="4.5" cy="5.5" r="4.5" fill="#D9D9D9" />
</svg>