<svg width="24" height="24" viewBox="0 0 24 24" fill="none" xmlns="http://www.w3.org/2000/svg">
<g clip-path="url(#clip0_76_176)">
<path d="M19 3C19.7652 2.99996 20.5015 3.29233 21.0583 3.81728C21.615 4.34224 21.9501 5.06011 21.995 5.824L22 6V18C22.0001 18.7652 21.7077 19.5015 21.1827 20.0583C20.6578 20.615 19.9399 20.9501 19.176 20.995L19 21H8.10802C7.63192 20.9999 7.16269 20.8865 6.7391 20.6691C6.31552 20.4518 5.94974 20.1367 5.67202 19.75L5.56402 19.59L1.48402 13.06C1.30109 12.7675 1.19695 12.4326 1.1817 12.0879C1.16646 11.7433 1.24063 11.4005 1.39702 11.093L1.48302 10.94L5.56402 4.41C5.81635 4.00619 6.16117 3.66825 6.56998 3.42411C6.97879 3.17998 7.43985 3.03665 7.91502 3.006L8.10802 3H19ZM19 5H8.10802C7.96013 5.00005 7.81408 5.0329 7.68042 5.09619C7.54675 5.15948 7.42878 5.25163 7.33502 5.366L7.26002 5.47L3.18002 12L7.26002 18.53C7.33839 18.6555 7.44362 18.762 7.56812 18.8419C7.69263 18.9218 7.83331 18.973 7.98002 18.992L8.10802 19H19C19.245 19 19.4814 18.91 19.6644 18.7473C19.8474 18.5845 19.9644 18.3603 19.993 18.117L20 18V6C20 5.75507 19.9101 5.51866 19.7473 5.33563C19.5845 5.15259 19.3603 5.03566 19.117 5.007L19 5ZM10.879 8.464L12.999 10.586L15.121 8.464C15.2139 8.37116 15.3242 8.29752 15.4456 8.2473C15.567 8.19708 15.697 8.17125 15.8284 8.1713C15.9597 8.17134 16.0898 8.19726 16.2111 8.24757C16.3324 8.29788 16.4427 8.37159 16.5355 8.4645C16.6284 8.55741 16.702 8.6677 16.7522 8.78907C16.8024 8.91043 16.8283 9.04051 16.8282 9.17185C16.8282 9.3032 16.8023 9.43325 16.752 9.55459C16.7016 9.67592 16.6279 9.78616 16.535 9.879L14.415 12L16.535 14.121C16.7227 14.3085 16.8281 14.5629 16.8282 14.8281C16.8283 15.0934 16.723 15.3479 16.5355 15.5355C16.348 15.7231 16.0936 15.8286 15.8284 15.8287C15.5631 15.8288 15.3087 15.7235 15.121 15.536L13 13.414L10.879 15.536C10.6914 15.7236 10.4369 15.8291 10.1715 15.8291C9.90616 15.8291 9.65166 15.7236 9.46402 15.536C9.27638 15.3484 9.17096 15.0939 9.17096 14.8285C9.17096 14.5631 9.27638 14.3086 9.46402 14.121L11.586 12L9.46402 9.879C9.27638 9.69136 9.17096 9.43686 9.17096 9.1715C9.17096 8.90614 9.27638 8.65164 9.46402 8.464C9.65166 8.27636 9.90616 8.17094 10.1715 8.17094C10.4369 8.17094 10.6914 8.27636 10.879 8.464Z" fill="white"/>
</g>
<defs>
<clipPath id="clip0_76_176">
<rect width="24" height="24" fill="white"/>
</clipPath>
</defs>
</svg>
