<svg width="24" height="24" viewBox="0 0 24 24" fill="none" xmlns="http://www.w3.org/2000/svg">
<g clip-path="url(#clip0_79_236)">
<path d="M10.756 6.16999L17.826 13.241L10.653 20.415C10.321 20.747 9.88272 20.9516 9.415 20.993L9.239 21H4.006C3.75718 21 3.51711 20.9081 3.33183 20.7421C3.14655 20.576 3.0291 20.3473 3.002 20.1L2.996 19.99V14.757C2.99612 14.2874 3.16144 13.8329 3.463 13.473L3.583 13.343L10.756 6.16999ZM13.896 3.02999C14.2499 2.67604 14.7237 2.46766 15.2237 2.446C15.7238 2.42434 16.2138 2.59097 16.597 2.91299L16.724 3.02999L20.967 7.27299C21.3207 7.62685 21.5289 8.10041 21.5505 8.60024C21.5722 9.10006 21.4057 9.58986 21.084 9.97299L20.967 10.101L19.241 11.827L12.171 4.75599L13.896 3.02999Z" fill="#ACABB5"/>
</g>
<defs>
<clipPath id="clip0_79_236">
<rect width="24" height="24" fill="white"/>
</clipPath>
</defs>
</svg>
