<svg width="24" height="24" viewBox="0 0 24 24" fill="none" xmlns="http://www.w3.org/2000/svg">
<g clip-path="url(#clip0_80_240)">
<path fill-rule="evenodd" clip-rule="evenodd" d="M20.131 3.16001C19.5684 2.59759 18.8055 2.28165 18.01 2.28165C17.2145 2.28165 16.4516 2.59759 15.889 3.16001L15.182 3.86801L20.132 8.81801L20.838 8.11101C21.1166 7.83242 21.3376 7.50168 21.4884 7.13767C21.6392 6.77366 21.7169 6.38351 21.7169 5.98951C21.7169 5.5955 21.6392 5.20535 21.4884 4.84134C21.3376 4.47733 21.1166 4.14659 20.838 3.86801L20.131 3.16001ZM18.717 10.232L13.767 5.28201L4.677 14.373C4.47808 14.572 4.33912 14.8228 4.276 15.097L3.247 19.552C3.20865 19.7174 3.21305 19.8898 3.25977 20.053C3.3065 20.2163 3.39401 20.3649 3.51405 20.4849C3.6341 20.605 3.78274 20.6925 3.94596 20.7392C4.10918 20.7859 4.28161 20.7903 4.447 20.752L8.903 19.724C9.1768 19.6607 9.42732 19.5218 9.626 19.323L18.717 10.232Z" fill="#ACABB5"/>
</g>
<defs>
<clipPath id="clip0_80_240">
<rect width="24" height="24" fill="white"/>
</clipPath>
</defs>
</svg>
