<svg width="24" height="24" viewBox="0 0 24 24" fill="none" xmlns="http://www.w3.org/2000/svg">
<g clip-path="url(#clip0_76_208)">
<path d="M20 9C20.2652 9 20.5196 9.10535 20.7071 9.29289C20.8946 9.48043 21 9.73478 21 10V11C21 13.1217 20.1571 15.1566 18.6569 16.6568C17.1566 18.1571 15.1217 19 13 19H9.414L10.207 19.793C10.3892 19.9816 10.49 20.2342 10.4877 20.4964C10.4854 20.7586 10.3802 21.0094 10.1948 21.1948C10.0094 21.3802 9.7586 21.4854 9.4964 21.4877C9.2342 21.4899 8.9816 21.3892 8.793 21.207L6.297 18.711C6.14205 18.5584 6.04126 18.3592 6.01 18.144L6 17.991C6.00163 17.7571 6.08554 17.5312 6.237 17.353L6.293 17.293L8.793 14.793C8.9816 14.6108 9.2342 14.51 9.4964 14.5123C9.7586 14.5146 10.0094 14.6198 10.1948 14.8052C10.3802 14.9906 10.4854 15.2414 10.4877 15.5036C10.49 15.7658 10.3892 16.0184 10.207 16.207L9.414 17H13C14.5913 17 16.1174 16.3679 17.2426 15.2426C18.3679 14.1174 19 12.5913 19 11V10C19 9.73478 19.1054 9.48043 19.2929 9.29289C19.4804 9.10535 19.7348 9 20 9ZM15.207 2.793L17.707 5.293C17.8945 5.48052 17.9998 5.73483 17.9998 6C17.9998 6.26516 17.8945 6.51947 17.707 6.707L15.207 9.207C15.1148 9.30251 15.0044 9.37869 14.8824 9.4311C14.7604 9.48351 14.6292 9.51109 14.4964 9.51225C14.3636 9.5134 14.2319 9.4881 14.109 9.43782C13.9861 9.38754 13.8745 9.31328 13.7806 9.21939C13.6867 9.1255 13.6125 9.01385 13.5622 8.89095C13.5119 8.76805 13.4866 8.63637 13.4877 8.50359C13.4889 8.37082 13.5165 8.23959 13.5689 8.11759C13.6213 7.99559 13.6975 7.88524 13.793 7.793L14.586 7H11C9.4087 7 7.88258 7.63214 6.75736 8.75735C5.63214 9.88257 5 11.4087 5 13V14C5 14.2652 4.89464 14.5196 4.70711 14.7071C4.51957 14.8946 4.26522 15 4 15C3.73478 15 3.48043 14.8946 3.29289 14.7071C3.10536 14.5196 3 14.2652 3 14V13C3 10.8783 3.84285 8.84343 5.34315 7.34314C6.84344 5.84285 8.87827 5 11 5H14.586L13.793 4.20699C13.6108 4.01839 13.51 3.76579 13.5123 3.50359C13.5146 3.2414 13.6198 2.99058 13.8052 2.80518C13.9906 2.61977 14.2414 2.5146 14.5036 2.51232C14.7658 2.51004 15.0184 2.61084 15.207 2.793Z" fill="white"/>
</g>
<defs>
<clipPath id="clip0_76_208">
<rect width="24" height="24" fill="white"/>
</clipPath>
</defs>
</svg>
