<svg width="24" height="24" viewBox="0 0 24 24" fill="none" xmlns="http://www.w3.org/2000/svg">
<g clip-path="url(#clip0_77_222)">
<path fill-rule="evenodd" clip-rule="evenodd" d="M15 4.19402V19.806C15.0001 20.0082 14.9444 20.2065 14.8391 20.3792C14.7338 20.5518 14.583 20.6921 14.4031 20.7845C14.2233 20.877 14.0215 20.9182 13.8198 20.9034C13.6182 20.8887 13.4245 20.8187 13.26 20.701L6.68 16H4C3.46957 16 2.96086 15.7893 2.58579 15.4142C2.21071 15.0392 2 14.5304 2 14V10C2 9.46958 2.21071 8.96087 2.58579 8.5858C2.96086 8.21073 3.46957 8.00002 4 8.00002H6.68L13.26 3.30002C13.4244 3.18242 13.618 3.11239 13.8196 3.09761C14.0212 3.08283 14.2229 3.12388 14.4027 3.21625C14.5825 3.30862 14.7333 3.44874 14.8387 3.62123C14.9441 3.79371 14.9999 3.99189 15 4.19402ZM13 5.94402L7.842 9.62602C7.50311 9.86873 7.09684 9.99949 6.68 10H4V14H6.68C7.09662 14 7.50287 14.13 7.842 14.372L13 18.057V5.94402ZM18.255 6.86102C18.4319 6.66344 18.68 6.54423 18.9448 6.5296C19.2096 6.51497 19.4694 6.60613 19.667 6.78302C20.4017 7.43897 20.9894 8.24289 21.3915 9.142C21.7935 10.0411 22.0009 11.0151 22 12C22.0009 12.9849 21.7935 13.9589 21.3915 14.858C20.9894 15.7571 20.4017 16.5611 19.667 17.217C19.5694 17.306 19.4551 17.3748 19.3308 17.4195C19.2064 17.4641 19.0745 17.4836 18.9426 17.4769C18.8106 17.4702 18.6813 17.4375 18.5621 17.3806C18.4429 17.3236 18.3362 17.2436 18.2481 17.1452C18.1599 17.0468 18.0922 16.9319 18.0487 16.8072C18.0053 16.6824 17.987 16.5503 17.9949 16.4184C18.0028 16.2865 18.0367 16.1576 18.0948 16.0389C18.1528 15.9202 18.2338 15.8142 18.333 15.727C18.8582 15.2586 19.2782 14.6844 19.5656 14.042C19.8529 13.3996 20.0009 12.7037 20 12C20 10.52 19.358 9.19002 18.333 8.27302C18.1354 8.09611 18.0162 7.84797 18.0016 7.58317C17.987 7.31837 18.0781 7.05861 18.255 6.86102ZM17.667 9.01902C18.0868 9.39387 18.4225 9.85324 18.6522 10.367C18.882 10.8807 19.0005 11.4372 19 12C19.0006 12.5628 18.8822 13.1194 18.6524 13.6331C18.4227 14.1469 18.0869 14.6062 17.667 14.981C17.4774 15.1494 17.2308 15.2395 16.9773 15.233C16.7237 15.2265 16.4821 15.1239 16.3014 14.9459C16.1206 14.768 16.0143 14.528 16.0038 14.2746C15.9933 14.0212 16.0796 13.7733 16.245 13.581L16.333 13.491C16.743 13.123 17 12.592 17 12C17.0012 11.4879 16.8049 10.9951 16.452 10.624L16.333 10.509C16.1382 10.3314 16.0215 10.084 16.0082 9.82073C15.9949 9.55745 16.086 9.29957 16.2619 9.10317C16.4377 8.90677 16.684 8.78775 16.9471 8.77199C17.2103 8.75623 17.469 8.84501 17.667 9.01902Z" fill="#ACABB5"/>
</g>
<defs>
<clipPath id="clip0_77_222">
<rect width="24" height="24" fill="white"/>
</clipPath>
</defs>
</svg>
